PathFileType  4	(X/Y/Z) W:\OA_GaitRetraining\ACL OpenCap study\PS1\Edited\
DataRate	CameraRate	NumFrames	NumMarkers	Units	OrigDataRate	OrigDataStartFrame	OrigNumFrames
  200.0		  200.0		    5		     46		 mm	  200.0	      1	    147
Frame#	Time	C7			R_Shoulder			L_Shoulder			Sternum			R_humerus			R_elbow_med			R_elbow_lat			R_forearm			R_wrist_radius			R_wrist_ulna			L_humerus			L_elbow_med			L_elbow_lat			L_forearm			L_wrist_radius			L_wrist_ulna			r.ASIS			r.PSIS			L.ASIS			L.PSIS			r_thigh1			r_thigh2			r_thigh3			r_thigh4			r_thigh5			r_knee			r_shank_antsup			r_sh2			r_sh3			r_sh4			r_ankle			r_calc			r_5meta			r_toe			L_thigh1			L_thigh2			L_thigh3			L_thigh4			L_knee			L_shank_antsup			L_sh2			L_sh3			L_ankle			L_calc			L_5meta			L_toe			
		X1	Y1	Z1	X2	Y2	Z2	X3	Y3	Z3	X4	Y4	Z4	X5	Y5	Z5	X6	Y6	Z6	X7	Y7	Z7	X8	Y8	Z8	X9	Y9	Z9	X10	Y10	Z10	X11	Y11	Z11	X12	Y12	Z12	X13	Y13	Z13	X14	Y14	Z14	X15	Y15	Z15	X16	Y16	Z16	X17	Y17	Z17	X18	Y18	Z18	X19	Y19	Z19	X20	Y20	Z20	X21	Y21	Z21	X22	Y22	Z22	X23	Y23	Z23	X24	Y24	Z24	X25	Y25	Z25	X26	Y26	Z26	X27	Y27	Z27	X28	Y28	Z28	X29	Y29	Z29	X30	Y30	Z30	X31	Y31	Z31	X32	Y32	Z32	X33	Y33	Z33	X34	Y34	Z34	X35	Y35	Z35	X36	Y36	Z36	X37	Y37	Z37	X38	Y38	Z38	X39	Y39	Z39	X40	Y40	Z40	X41	Y41	Z41	X42	Y42	Z42	X43	Y43	Z43	X44	Y44	Z44	X45	Y45	Z45	X46	Y46	Z46	

1	0.00000	-138.391	1286.706	472.506	4.519	1237.256	386.624	-289.349	1244.334	380.686	-134.287	1197.581	338.065	134.160	1085.010	535.399	89.569	996.358	625.631	157.853	1008.809	609.624	173.904	874.175	531.903	173.659	793.535	536.928	159.630	811.748	491.373	-388.175	1111.907	456.011	-377.586	982.932	588.431	-442.318	998.171	551.432	-426.624	962.524	464.747	-349.063	902.883	367.199	-394.600	876.565	377.457	-4.271	813.555	401.830	-83.685	843.907	607.052	-250.866	823.846	412.238	-155.974	844.597	612.617	12.740	741.077	316.561	10.086	660.916	224.912	53.738	624.753	226.544	83.229	671.921	369.480	69.268	595.902	287.075	39.756	494.282	154.831	39.351	396.881	175.475	19.407	296.251	233.678	42.807	434.237	243.058	18.637	338.567	307.638	-3.993	195.688	360.804	-67.498	193.392	422.997	48.063	102.795	316.623	0.472	91.252	256.165	-274.224	723.388	337.346	-249.695	627.215	241.956	-328.955	647.205	412.413	-295.165	551.430	314.169	-255.359	468.903	191.036	-241.475	297.806	169.441	-275.249	311.312	253.573	-241.369	196.669	276.200	-232.096	90.441	268.088	-196.663	63.606	341.059	-248.211	32.289	177.441	-181.574	56.657	139.494
2	0.00500	-136.610	1287.605	453.900	6.172	1235.007	369.003	-287.329	1243.814	362.276	-132.098	1196.517	320.963	133.995	1082.387	520.150	88.794	994.053	610.438	154.934	1005.469	596.812	174.879	871.646	518.775	173.973	791.134	524.586	160.751	808.249	479.032	-387.060	1111.861	437.957	-376.148	979.533	567.441	-440.695	995.517	531.378	-425.084	959.459	444.068	-346.903	899.887	347.847	-393.224	874.033	356.555	-3.160	811.139	384.843	-84.067	842.694	590.076	-252.187	822.614	394.425	-154.918	845.489	594.171	13.265	743.093	299.734	12.204	663.427	207.724	55.355	627.089	209.327	80.388	673.705	356.506	71.112	598.767	268.638	40.501	497.608	135.087	41.387	399.276	152.296	22.007	296.110	205.815	45.010	433.730	221.307	20.483	335.516	281.908	-0.996	187.720	327.651	-64.225	182.069	389.986	50.626	96.926	278.258	3.173	89.888	217.361	-273.228	722.618	319.546	-249.831	625.679	224.807	-328.963	647.171	394.906	-295.920	550.837	297.754	-255.660	466.664	172.014	-241.727	295.020	157.499	-275.000	312.050	241.398	-240.673	196.654	269.389	-232.438	91.780	266.126	-196.833	65.979	339.647	-247.834	31.969	176.482	-180.808	55.577	139.554
3	0.01000	-134.887	1288.613	435.706	7.730	1233.011	351.416	-284.827	1243.452	343.633	-129.777	1195.541	303.758	134.389	1080.806	503.887	88.174	992.817	595.061	153.110	1004.239	583.205	175.336	869.849	505.791	173.928	789.003	511.847	162.101	806.065	466.117	-385.560	1112.019	419.729	-374.314	976.845	546.700	-438.853	993.439	511.800	-423.524	956.931	424.004	-345.654	897.372	327.423	-391.859	871.717	336.210	-1.626	809.254	367.745	-82.935	842.823	572.833	-256.296	820.929	379.164	-153.400	846.649	576.305	14.976	744.427	284.082	13.529	665.443	191.514	56.942	629.656	192.512	79.536	673.058	341.742	72.811	600.359	251.506	42.902	502.914	114.253	43.363	401.274	129.345	24.431	295.515	177.950	45.704	431.985	200.876	21.990	331.516	255.995	1.629	179.488	293.913	-61.601	170.659	355.966	52.475	91.103	238.808	5.495	89.411	176.659	-273.326	720.414	300.693	-249.784	622.689	206.852	-328.115	646.070	377.598	-295.652	548.838	280.756	-257.565	461.628	156.767	-242.018	291.150	147.632	-274.745	311.798	230.114	-240.496	199.245	262.963	-233.721	95.346	263.859	-196.590	69.120	337.557	-248.063	31.704	175.775	-181.323	55.093	138.468
4	0.01500	-132.771	1289.519	417.214	9.040	1231.286	334.149	-282.051	1243.150	324.838	-127.327	1194.584	286.442	134.945	1079.360	487.763	87.619	992.606	579.518	152.793	1004.333	567.869	176.338	868.282	493.400	173.923	787.408	498.801	163.001	804.360	452.860	-384.004	1112.125	401.468	-372.078	975.055	526.504	-436.830	992.076	492.592	-421.770	955.279	404.715	-344.407	894.989	307.504	-390.420	869.611	316.348	0.588	808.013	351.056	-80.842	842.961	555.998	-257.982	819.710	361.590	-151.541	846.607	558.697	17.094	745.115	269.932	15.344	667.709	175.687	58.508	631.727	176.207	79.910	671.736	325.961	73.634	601.007	234.906	43.965	506.628	96.608	45.466	402.913	106.788	26.665	294.764	149.799	46.390	429.295	178.233	23.064	326.772	229.701	4.400	171.273	259.294	-58.986	158.939	321.361	54.052	86.122	198.793	6.259	87.965	137.222	-273.371	717.939	282.102	-250.474	619.386	188.724	-326.499	643.562	360.424	-294.540	546.127	264.355	-259.403	455.984	143.332	-242.455	286.654	138.040	-274.311	310.890	219.713	-239.765	200.511	256.381	-233.604	97.988	260.898	-195.830	73.092	335.267	-248.476	31.860	174.821	-181.726	54.082	136.362
5	0.02000	-130.618	1290.017	399.393	10.618	1230.202	317.042	-278.651	1242.497	306.573	-124.921	1193.113	269.839	135.782	1078.156	471.631	87.070	993.061	563.723	153.298	1004.804	551.548	176.575	867.835	479.360	173.722	786.414	485.324	163.723	803.374	439.133	-382.271	1112.516	383.387	-369.552	974.239	506.971	-434.661	991.223	473.724	-419.959	954.491	385.993	-343.251	892.745	288.131	-389.100	867.704	297.322	3.514	807.595	334.594	-79.450	842.879	538.221	-258.293	818.542	343.954	-149.994	845.776	541.943	19.712	745.159	256.295	17.520	669.929	160.249	60.062	633.025	160.437	81.004	669.598	311.495	73.161	599.397	217.737	44.966	509.988	79.707	47.432	404.071	84.572	28.550	293.737	121.783	47.805	426.868	157.381	24.238	321.889	203.084	6.249	163.032	224.222	-57.143	147.345	286.209	55.021	81.094	158.947	6.728	87.061	97.571	-273.993	715.167	263.570	-251.731	616.057	170.626	-324.790	640.892	343.374	-293.010	542.974	248.083	-260.729	450.369	130.517	-243.277	281.912	128.869	-273.207	309.973	209.792	-238.604	201.048	250.562	-233.005	101.149	257.795	-194.735	78.185	332.802	-248.310	32.254	174.091	-181.920	53.476	134.986
